<svg version="1.1" xmlns="http://www.w3.org/2000/svg" xmlns:xlink="http://www.w3.org/1999/xlink" width="14" height="16" viewBox="0,0,224,256"><g fill="#ffffff" fill-rule="nonzero" stroke="none" stroke-width="1" stroke-linecap="butt" stroke-linejoin="miter" stroke-miterlimit="10" stroke-dasharray="" stroke-dashoffset="0" font-family="none" font-weight="none" font-size="none" text-anchor="none" style="mix-blend-mode: normal"><g transform="scale(0.5,0.5)"><path d="M64,32c-35.3,0 -64,28.7 -64,64v320c0,35.3 28.7,64 64,64h320c35.3,0 64,-28.7 64,-64v-320c0,-35.3 -28.7,-64 -64,-64zM128,224c17.7,0 32,14.3 32,32v96c0,17.7 -14.3,32 -32,32c-17.7,0 -32,-14.3 -32,-32v-96c0,-17.7 14.3,-32 32,-32zM192,160c0,-17.7 14.3,-32 32,-32c17.7,0 32,14.3 32,32v192c0,17.7 -14.3,32 -32,32c-17.7,0 -32,-14.3 -32,-32zM320,288c17.7,0 32,14.3 32,32v32c0,17.7 -14.3,32 -32,32c-17.7,0 -32,-14.3 -32,-32v-32c0,-17.7 14.3,-32 32,-32z"></path></g></g></svg>